#!OML:ASF H:\Pregnant\Project 1\Capture day 1\Session 1\femalepreg.ASF
:FULLY-SPECIFIED
:DEGREES
1477
root 5.23373 15.5841 22.4361 22.703 -72.9466 -1.04618
lowerback -17.8207 0.132026 -3.17996
upperback -5.90642 0.394395 1.17949
thorax 3.60807 0.101838 3.12849
lowerneck -16.8091 8.2263 8.48838
upperneck 25.5795 9.73356 -2.61937
head 11.7187 4.81192 -0.897261
rclavicle 5.01248e-014 -1.19271e-014
rhumerus -40.3179 -4.20446 -72.6124
rradius 31.5003
rwrist -0.10333
rhand -10.9139 -14.4188
rfingers 7.12502
rthumb 15.1035 -43.8478
lclavicle 5.01248e-014 -1.19271e-014
lhumerus -41.2701 3.20509 79.3442
lradius 30.7841
lwrist 36.2337
lhand -21.1724 2.77418
lfingers 7.12502
lthumb 5.2079 32.6902
rfemur -39.0281 18.6158 14.4169
rtibia 37.3092
rfoot -15.5436 -26.5403
rtoes -2.78783
lfemur -25.1734 -13.2175 -18.199
ltibia 14.5706
lfoot -6.38618 15.1916
ltoes -10.9907
1478
root 5.23323 15.5834 22.4383 22.6818 -72.9568 -1.05842
lowerback -17.8655 0.137929 -3.15853
upperback -5.90041 0.39931 1.18333
thorax 3.6379 0.103397 3.12197
lowerneck -16.7834 8.22736 8.49071
upperneck 25.6145 9.73633 -2.61772
head 11.7275 4.81347 -0.897198
rclavicle -9.3348e-014 -7.15625e-015
rhumerus -40.3517 -4.29558 -72.5056
rradius 31.31
rwrist -0.00228395
rhand -10.8935 -14.4383
rfingers 7.12502
rthumb 15.1231 -43.8658
lclavicle -9.3348e-014 -7.15625e-015
lhumerus -41.3411 3.27272 79.289
lradius 30.6097
lwrist 36.1559
lhand -21.1536 2.77208
lfingers 7.12502
lthumb 5.22604 32.6876
rfemur -38.9896 18.588 14.439
rtibia 37.3119
rfoot -15.5098 -26.5255
rtoes -2.92946
lfemur -25.132 -13.1679 -18.2292
ltibia 14.5783
lfoot -6.40502 15.1433
ltoes -11.0047
1479
root 5.2327 15.5828 22.4405 22.6636 -72.9681 -1.07205
lowerback -17.9111 0.142261 -3.13832
upperback -5.89634 0.402103 1.18945
thorax 3.6662 0.103932 3.11813
lowerneck -16.7525 8.22959 8.48927
upperneck 25.6445 9.74193 -2.61504
head 11.7331 4.81618 -0.89597
rclavicle 4.43476e-014 4.17448e-015
rhumerus -40.389 -4.3875 -72.3974
rradius 31.1307
rwrist 0.0993163
rhand -10.8732 -14.453
rfingers 7.12502
rthumb 15.1426 -43.879
lclavicle 4.43476e-014 4.17448e-015
lhumerus -41.4185 3.33806 79.2367
lradius 30.4507
lwrist 36.0841
lhand -21.1387 2.7721
lfingers 7.12502
lthumb 5.24041 32.6873
rfemur -38.9542 18.568 14.4564
rtibia 37.3166
rfoot -15.4978 -26.5061
rtoes -3.00372
lfemur -25.0873 -13.1196 -18.2582
ltibia 14.577
lfoot -6.41947 15.0981
ltoes -11.0246
1480
root 5.23214 15.5824 22.4427 22.6482 -72.9806 -1.08771
lowerback -17.9563 0.146269 -3.11844
upperback -5.89425 0.404309 1.19659
thorax 3.6922 0.104213 3.11543
lowerneck -16.7164 8.2322 8.48471
upperneck 25.6689 9.74892 -2.61082
head 11.7353 4.81954 -0.893736
rclavicle 3.88935e-014 1.53064e-014
rhumerus -40.4317 -4.48201 -72.2895
rradius 30.964
rwrist 0.199681
rhand -10.8545 -14.4637
rfingers 7.12502
rthumb 15.1607 -43.8883
lclavicle 3.88935e-014 1.53064e-014
lhumerus -41.5017 3.39571 79.1884
lradius 30.308
lwrist 36.0208
lhand -21.1274 2.77641
lfingers 7.12502
lthumb 5.25135 32.6913
rfemur -38.9211 18.5632 14.4659
rtibia 37.324
rfoot -15.5259 -26.4802
rtoes -2.94818
lfemur -25.0363 -13.0735 -18.2855
ltibia 14.5625
lfoot -6.42895 15.0561
ltoes -11.0419
1481
root 5.23154 15.5823 22.4447 22.6359 -72.994 -1.10609
lowerback -18.0006 0.151137 -3.09781
upperback -5.89373 0.407392 1.20338
thorax 3.71596 0.104962 3.11208
lowerneck -16.6759 8.23475 8.47904
upperneck 25.6877 9.75611 -2.60556
head 11.7344 4.82314 -0.891149
rclavicle 1.18028e-014 2.78299e-015
rhumerus -40.4806 -4.57789 -72.1847
rradius 30.8114
rwrist 0.294831
rhand -10.8396 -14.4728
rfingers 7.12502
rthumb 15.175 -43.8964
lclavicle 1.18028e-014 2.78299e-015
lhumerus -41.589 3.44338 79.144
lradius 30.1812
lwrist 35.9651
lhand -21.118 2.78438
lfingers 7.12502
lthumb 5.26043 32.6991
rfemur -38.8896 18.5805 14.4643
rtibia 37.3345
rfoot -15.6119 -26.4452
rtoes -2.70074
lfemur -24.9767 -13.0316 -18.3098
ltibia 14.5315
lfoot -6.43333 15.0184
ltoes -11.0475
1482
root 5.2309 15.5826 22.4466 22.6269 -73.0081 -1.12819
lowerback -18.0436 0.157733 -3.07553
upperback -5.894 0.412436 1.20884
thorax 3.73815 0.106701 3.10677
lowerneck -16.6335 8.23713 8.47541
upperneck 25.702 9.76278 -2.60104
head 11.7315 4.82668 -0.889371
rclavicle 6.88292e-015 -3.37934e-015
rhumerus -40.5354 -4.67388 -72.0856
rradius 30.6732
rwrist 0.381401
rhand -10.8299 -14.4824
rfingers 7.12502
rthumb 15.1844 -43.9053
lclavicle 6.88292e-015 -3.37934e-015
lhumerus -41.6782 3.48223 79.1018
lradius 30.0693
lwrist 35.913
lhand -21.1074 2.79554
lfingers 7.12502
lthumb 5.27067 32.71
rfemur -38.8585 18.6225 14.4509
rtibia 37.3482
rfoot -15.764 -26.3991
rtoes -2.23195
lfemur -24.9074 -12.9953 -18.3304
ltibia 14.4837
lfoot -6.4339 14.986
ltoes -11.0312
1483
root 5.23021 15.5832 22.4485 22.6216 -73.0228 -1.15423
lowerback -18.0862 0.16593 -3.05118
upperback -5.89432 0.419266 1.21285
thorax 3.75997 0.109322 3.09911
lowerneck -16.5918 8.23983 8.47546
upperneck 25.7129 9.76927 -2.59834
head 11.7278 4.83031 -0.888876
rclavicle 3.1203e-014 2.60408e-014
rhumerus -40.5941 -4.76794 -71.9936
rradius 30.5494
rwrist 0.458153
rhand -10.8257 -14.4943
rfingers 7.12502
rthumb 15.1884 -43.9169
lclavicle 3.1203e-014 2.60408e-014
lhumerus -41.7676 3.51613 79.0604
lradius 29.9712
lwrist 35.8614
lhand -21.0937 2.80689
lfingers 7.12502
lthumb 5.28387 32.721
rfemur -38.8273 18.6854 14.4277
rtibia 37.364
rfoot -15.9731 -26.342
rtoes -1.56952
lfemur -24.8303 -12.9646 -18.3472
ltibia 14.4224
lfoot -6.43298 14.9584
ltoes -10.9892
1484
root 5.22947 15.584 22.4503 22.6212 -73.0377 -1.18527
lowerback -18.1293 0.175091 -3.02445
upperback -5.89421 0.426992 1.21599
thorax 3.78245 0.112364 3.08937
lowerneck -16.552 8.24347 8.47982
upperneck 25.7218 9.77652 -2.5985
head 11.7241 4.83435 -0.889918
rclavicle 4.77363e-014 -5.56597e-015
rhumerus -40.6543 -4.85882 -71.9087
rradius 30.4385
rwrist 0.526522
rhand -10.8273 -14.5088
rfingers 7.12502
rthumb 15.1869 -43.9315
lclavicle 4.77363e-014 -5.56597e-015
lhumerus -41.8561 3.55014 79.0179
lradius 29.8856
lwrist 35.8075
lhand -21.0769 2.81605
lfingers 7.12502
lthumb 5.30014 32.7298
rfemur -38.7955 18.7595 14.4002
rtibia 37.3803
rfoot -16.2156 -26.2762
rtoes -0.79332
lfemur -24.7495 -12.9392 -18.3601
ltibia 14.3549
lfoot -6.43333 14.9359
ltoes -10.9252
1485
root 5.22868 15.5847 22.4521 22.6258 -73.0525 -1.22094
lowerback -18.1732 0.18408 -2.99594
upperback -5.89393 0.434146 1.21953
thorax 3.80562 0.115105 3.07894
lowerneck -16.5136 8.2485 8.48766
upperneck 25.7294 9.78576 -2.60248
head 11.7208 4.83913 -0.892533
rclavicle -2.04096e-014 -2.32578e-014
rhumerus -40.7147 -4.94507 -71.8298
rradius 30.3398
rwrist 0.589122
rhand -10.8345 -14.5255
rfingers 7.12502
rthumb 15.1799 -43.9487
lclavicle -2.04096e-014 -2.32578e-014
lhumerus -41.9443 3.58734 78.9745
lradius 29.8119
lwrist 35.7523
lhand -21.0589 2.81994
lfingers 7.12502
lthumb 5.31745 32.7332
rfemur -38.7624 18.8295 14.3761
rtibia 37.395
rfoot -16.4532 -26.2067
rtoes -0.0333398
lfemur -24.6702 -12.9155 -18.3707
ltibia 14.2902
lfoot -6.43767 14.9155
ltoes -10.85
1486
root 5.22785 15.5852 22.4539 22.6347 -73.067 -1.25979
lowerback -18.2179 0.1918 -2.96696
upperback -5.89411 0.43941 1.22458
thorax 3.82883 0.116909 3.06947
lowerneck -16.4754 8.25515 8.49801
upperneck 25.7362 9.79779 -2.61056
head 11.7178 4.84489 -0.896577
rclavicle 3.44767e-014 1.17283e-014
rhumerus -40.775 -5.02629 -71.7554
rradius 30.2524
rwrist 0.648635
rhand -10.847 -14.5425
rfingers 7.12502
rthumb 15.1679 -43.9666
lclavicle 3.44767e-014 1.17283e-014
lhumerus -42.0332 3.62858 78.931
lradius 29.7496
lwrist 35.6982
lhand -21.0426 2.81775
lfingers 7.12502
lthumb 5.33318 32.7306
rfemur -38.7285 18.8835 14.3612
rtibia 37.4063
rfoot -16.6541 -26.1395
rtoes 0.600829
lfemur -24.5976 -12.889 -18.3811
ltibia 14.2367
lfoot -6.44796 14.8936
ltoes -10.7769
1487
root 5.22701 15.5854 22.4558 22.6466 -73.0811 -1.30043
lowerback -18.2629 0.197556 -2.93915
upperback -5.89558 0.442048 1.23208
thorax 3.851 0.117436 3.06273
lowerneck -16.4359 8.26319 8.51015
upperneck 25.7429 9.8127 -2.62308
head 11.715 4.85158 -0.902101
rclavicle 5.92316e-015 -2.18663e-015
rhumerus -40.8359 -5.10132 -71.6845
rradius 30.1765
rwrist 0.705388
rhand -10.8636 -14.5587
rfingers 7.12502
rthumb 15.1518 -43.984
lclavicle 5.92316e-015 -2.18663e-015
lhumerus -42.1238 3.67118 78.8894
lradius 29.6987
lwrist 35.6499
lhand -21.0292 2.81078
lfingers 7.12502
lthumb 5.34613 32.7233
rfemur -38.6938 18.9152 14.3584
rtibia 37.4135
rfoot -16.8002 -26.0795
rtoes 1.04714
lfemur -24.5351 -12.8572 -18.3928
ltibia 14.1997
lfoot -6.46483 14.8684
ltoes -10.7166
